<svg width="114" height="62" viewBox="0 0 114 62" fill="none" xmlns="http://www.w3.org/2000/svg">
<g id="Mask-group (3) 1">
<g id="Group">
<path id="Vector" d="M20.1194 16.0122C19.756 16.2963 19.7361 16.336 19.7097 16.7853C19.6899 17.195 19.6965 17.2347 19.8881 17.4395C20.0005 17.5585 20.093 17.684 20.093 17.7237C20.093 17.7567 20.1392 17.7832 20.1921 17.7832C20.245 17.7832 20.2912 17.8294 20.2912 17.8823C20.2912 17.9351 20.3177 17.9814 20.3441 17.9814C20.4168 17.9814 21.745 19.303 21.745 19.3757C21.745 19.4088 21.7781 19.4352 21.8111 19.4352C21.8706 19.4352 22.8684 20.4132 22.8684 20.4727C22.8684 20.5057 23.668 21.2524 23.7341 21.2722C23.7671 21.2855 23.7935 21.3251 23.7935 21.3582C23.7935 21.3978 23.9455 21.563 24.1372 21.7348C24.3222 21.9066 24.527 22.0983 24.5799 22.1577C24.6394 22.2238 24.831 22.4155 25.0094 22.5873C25.1878 22.7591 25.6438 23.2283 26.0337 23.6247C26.417 24.0212 26.8068 24.4045 26.8927 24.4838C26.972 24.5565 27.1505 24.7217 27.276 24.834C27.4016 24.953 27.5403 25.0521 27.5932 25.0521C27.6395 25.0521 27.6923 25.0917 27.7055 25.1314C27.732 25.1975 28.7298 25.2239 32.2916 25.2503C34.9084 25.2702 36.8974 25.3098 36.9767 25.3429C37.1684 25.442 37.3402 25.6006 37.3402 25.6931C37.3402 25.7393 37.3666 25.779 37.4063 25.779C37.4459 25.779 37.4723 27.4112 37.4856 30.2527L37.5054 34.733L37.6508 35.0502C37.7367 35.222 37.9812 35.5458 38.1992 35.7639C38.4173 35.9753 38.5957 36.1868 38.5957 36.2198C38.5957 36.2595 38.6222 36.2859 38.6552 36.2859C38.7345 36.2859 40.8425 38.3939 40.8425 38.4732C40.8425 38.5062 40.8689 38.5327 40.902 38.5327C40.9813 38.5327 42.891 40.4424 42.891 40.5217C42.891 40.5548 42.9174 40.5812 42.9505 40.5812C43.0298 40.5812 44.3448 41.9028 44.3448 41.9755C44.3448 42.0085 44.3712 42.035 44.4043 42.035C44.4373 42.035 44.6752 42.2398 44.9263 42.4843C45.455 43.0064 45.7721 43.1848 46.0431 43.1187C46.3338 43.0526 46.7502 42.7883 46.8427 42.6165C46.9087 42.4975 46.922 40.2838 46.9021 32.4202C46.8823 23.4529 46.8691 22.3229 46.7766 21.8802C46.5982 21.0806 46.5057 20.7568 46.4462 20.7568C46.4197 20.7568 46.3933 20.6973 46.3933 20.6313C46.3933 20.5586 46.3471 20.4594 46.2942 20.4C46.2413 20.3471 46.1951 20.2546 46.1951 20.1951C46.1951 20.1357 46.1488 20.0431 46.0959 19.9903C46.0431 19.9308 45.9968 19.8317 45.9968 19.759C45.9968 19.6929 45.9704 19.6334 45.944 19.6334C45.9109 19.6334 45.8316 19.5145 45.7589 19.3691C45.6929 19.2237 45.5937 19.1048 45.5541 19.1048C45.5078 19.1048 45.4682 19.0717 45.4682 19.0321C45.4682 18.7942 43.8624 17.1884 43.6245 17.1884C43.5849 17.1884 43.5518 17.162 43.5518 17.129C43.5518 17.0959 43.4857 17.043 43.4064 17.0166C43.3205 16.9902 43.2412 16.9571 43.2214 16.9307C43.1223 16.8118 42.2038 16.3558 41.9328 16.2897C41.8271 16.2633 41.7082 16.2236 41.6685 16.1972C41.6355 16.1642 41.457 16.1245 41.272 16.0981C41.0936 16.0717 40.7764 16.0056 40.5782 15.9593C40.2808 15.88 38.5296 15.8668 30.2629 15.8668H20.311L20.1194 16.0122Z" fill="black"/>
<path id="Vector_2" d="M63.2113 16.8586C62.3258 16.9379 61.394 17.0766 61.394 17.1295C61.394 17.1559 61.2156 17.1956 60.9976 17.222C60.7795 17.2484 60.6011 17.2881 60.6011 17.3211C60.6011 17.3476 60.4821 17.3872 60.3367 17.4137C60.1848 17.4335 60.0129 17.4797 59.9535 17.5128C59.894 17.5458 59.7222 17.6251 59.5768 17.6912C58.9623 17.9621 58.8499 18.015 58.8169 18.0546C58.7971 18.0811 58.7111 18.1207 58.6186 18.1472C58.5261 18.1736 58.4402 18.2132 58.4204 18.2397C58.3741 18.2991 58.1495 18.4379 57.9776 18.5106C57.8917 18.5436 57.8257 18.6031 57.8257 18.6428C57.8257 18.6758 57.786 18.7088 57.7398 18.7088C57.6935 18.7088 57.5613 18.7948 57.4424 18.9071C57.3234 19.0128 57.2045 19.1053 57.1847 19.1053C57.1054 19.1053 55.7177 20.612 55.645 20.7838C55.5987 20.8829 55.2287 21.4446 55.1758 21.4843C55.156 21.5041 55.1097 21.59 55.0833 21.6825C55.0569 21.775 55.0172 21.8609 54.9908 21.8807C54.9709 21.9006 54.8983 22.0327 54.8322 22.1781C54.7661 22.3235 54.667 22.5283 54.6141 22.6275C54.5612 22.7332 54.5018 22.9314 54.4819 23.0768C54.4555 23.2156 54.4159 23.3345 54.3828 23.3345C54.3498 23.3345 54.3234 23.4072 54.3234 23.4997C54.3234 23.5922 54.2969 23.6649 54.2639 23.6649C54.2308 23.6649 54.1912 23.8103 54.1648 23.9953C54.1383 24.1738 54.0987 24.339 54.0656 24.3588C54.0326 24.3786 53.9863 24.6099 53.9599 24.8676C53.9335 25.1319 53.8806 25.3698 53.8343 25.3963C53.7286 25.4623 53.7286 37.4164 53.841 37.5486C53.8806 37.6015 53.9335 37.8394 53.9599 38.0905C53.9863 38.335 54.0326 38.553 54.0656 38.5729C54.0987 38.5861 54.1383 38.7513 54.1648 38.9297C54.1912 39.1147 54.2308 39.2601 54.2639 39.2601C54.2969 39.2601 54.3234 39.313 54.3234 39.3857C54.3234 39.4517 54.3696 39.5971 54.4225 39.6962C54.4753 39.802 54.5216 39.954 54.5216 40.0333C54.5216 40.1192 54.548 40.1852 54.5877 40.1852C54.6207 40.1852 54.667 40.291 54.6934 40.4165C54.7132 40.5421 54.7595 40.6676 54.7925 40.6809C54.819 40.7007 54.9511 40.9386 55.0833 41.2095C55.2154 41.4804 55.3476 41.7051 55.374 41.7051C55.4071 41.7051 55.4467 41.758 55.4732 41.8175C55.5128 41.9562 55.6384 42.1545 55.7639 42.2866C55.8036 42.3329 55.8432 42.399 55.8432 42.432C55.8432 42.5113 57.3102 43.9519 57.3895 43.9519C57.4358 43.9519 57.5085 44.0114 57.5613 44.0906C57.6142 44.1699 57.7199 44.2559 57.7926 44.2889C57.938 44.355 58.1693 44.4937 58.2221 44.5466C58.3411 44.6656 59.4513 45.2074 59.5702 45.2074C59.6297 45.2074 59.6759 45.2339 59.6759 45.2669C59.6759 45.2999 59.7751 45.3462 59.894 45.3726C60.0063 45.3924 60.1649 45.4387 60.2376 45.4717C60.5284 45.5907 61.6914 45.8616 62.2861 45.9409C63.469 46.0995 64.3148 46.1392 65.1408 46.0665C66.3237 45.974 67.7378 45.7559 67.8039 45.67C67.8237 45.6436 67.9757 45.6039 68.1475 45.5775C68.3194 45.551 68.478 45.5048 68.4978 45.4651C68.5242 45.4321 68.5903 45.4057 68.6498 45.4057C68.7092 45.4057 68.8414 45.366 68.9339 45.3132C69.0264 45.2669 69.185 45.2074 69.2974 45.181C69.4031 45.1546 69.5022 45.1083 69.522 45.0885C69.5419 45.062 69.674 44.9827 69.8194 44.9101C70.282 44.6788 71.0419 44.2096 71.0419 44.1501C71.0419 44.1171 71.0816 44.084 71.1344 44.0708C71.2468 44.0444 71.7093 43.6677 72.0265 43.3373C72.6741 42.6567 72.8195 42.4915 72.8591 42.3659C72.879 42.2932 72.9252 42.2338 72.9517 42.2338C72.9781 42.2338 73.0574 42.1148 73.1301 41.9694C73.1962 41.8241 73.2754 41.7051 73.3085 41.7051C73.3349 41.7051 73.3878 41.639 73.4208 41.5531C73.4605 41.4738 73.5133 41.3615 73.5464 41.3086C73.5794 41.2558 73.705 40.998 73.8173 40.7469C73.9297 40.4892 74.0552 40.2315 74.0882 40.172C74.1213 40.1059 74.1477 40.0002 74.1477 39.9407C74.1477 39.8747 74.194 39.7623 74.2468 39.6962C74.2997 39.6236 74.346 39.498 74.346 39.4121C74.346 39.3262 74.3724 39.2601 74.4054 39.2601C74.4385 39.2601 74.4847 39.0949 74.5112 38.8967C74.531 38.6984 74.5839 38.52 74.6169 38.5002C74.6962 38.4473 74.6962 37.9385 74.6103 37.9385C74.5773 37.9385 74.5442 37.8922 74.5442 37.8394C74.5442 37.6676 74.2072 37.4231 73.9098 37.3768C73.7512 37.357 73.6059 37.3107 73.586 37.2711C73.5596 37.238 73.4737 37.2116 73.3812 37.2116C73.2953 37.2116 73.2226 37.1852 73.2226 37.1521C73.2226 37.1191 73.0904 37.0728 72.9252 37.053C72.76 37.0266 72.6279 36.9803 72.6279 36.9539C72.6279 36.9208 72.4957 36.8746 72.3305 36.8548C72.1719 36.8283 72.0199 36.7821 72.0001 36.749C71.9803 36.716 71.8283 36.6697 71.6697 36.6433C71.5045 36.6235 71.3723 36.5772 71.3723 36.5508C71.3723 36.5243 71.2335 36.4781 71.0683 36.4517C70.8965 36.4252 70.6983 36.379 70.619 36.3393C70.5397 36.2997 70.4207 36.2402 70.3547 36.2005C70.13 36.0948 69.4626 36.0618 69.2908 36.1543C69.0991 36.26 68.9273 36.597 68.9273 36.8746C68.9273 36.9869 68.9009 37.0794 68.8678 37.0794C68.8348 37.0794 68.7951 37.1984 68.7687 37.3438C68.7489 37.4957 68.7026 37.6676 68.6696 37.727C68.6365 37.7865 68.544 37.9649 68.4713 38.1169C68.2665 38.5398 68.1806 38.6786 67.989 38.8967C67.8832 39.0024 67.8039 39.1213 67.8039 39.1478C67.8039 39.2337 67.6453 39.3724 67.4933 39.4187C67.414 39.4451 67.3347 39.5046 67.3149 39.5575C67.2951 39.6103 67.2356 39.6566 67.1762 39.6566C67.1233 39.6566 67.077 39.683 67.077 39.7227C67.077 39.7557 67.0043 39.802 66.9118 39.8284C66.8193 39.8482 66.7466 39.8945 66.7466 39.9275C66.7466 39.9606 66.7004 39.987 66.6475 39.987C66.5946 39.987 66.5484 40.0134 66.5484 40.0465C66.5484 40.0795 66.4228 40.1192 66.2708 40.1456C66.1189 40.172 65.947 40.2249 65.8942 40.2712C65.7554 40.3835 63.0857 40.3835 62.9668 40.2645C62.9271 40.2249 62.828 40.1852 62.7619 40.1852C62.643 40.1852 62.187 40.0002 62.1209 39.9209C62.1011 39.9011 62.0152 39.8548 61.9227 39.8152C61.5328 39.6434 60.7068 38.8041 60.6275 38.5068C60.6077 38.4143 60.5614 38.335 60.535 38.335C60.5019 38.335 60.4623 38.2491 60.4359 38.1367C60.4094 38.031 60.3632 37.9385 60.3301 37.9385C60.2971 37.9385 60.2707 37.8658 60.2707 37.7733C60.2707 37.6808 60.2442 37.6081 60.2112 37.6081C60.1781 37.6081 60.1319 37.4825 60.1055 37.3239C60.079 37.1719 60.0196 37.0266 59.9799 37.0001C59.8676 36.9274 59.8742 25.9712 59.9865 25.839C60.0328 25.7861 60.0856 25.6143 60.1121 25.4623C60.1385 25.3104 60.1848 25.165 60.2112 25.1452C60.2442 25.1253 60.2707 25.0526 60.2707 24.98C60.2707 24.9139 60.2971 24.8544 60.3301 24.8544C60.3632 24.8544 60.4094 24.7619 60.4359 24.6562C60.4623 24.5438 60.5019 24.4579 60.535 24.4579C60.5614 24.4579 60.6077 24.3852 60.6275 24.2927C60.6539 24.2002 60.7002 24.1275 60.7332 24.1275C60.7729 24.1275 60.7993 24.0945 60.7993 24.0548C60.7993 23.9755 61.4733 23.2949 61.698 23.1495C61.9293 22.9975 62.4183 22.7927 62.6364 22.7596C62.7487 22.7398 62.8478 22.6935 62.8478 22.6671C62.8478 22.6341 62.9602 22.6076 63.0989 22.6076C63.2377 22.6076 63.3831 22.5746 63.4227 22.5349C63.4624 22.4953 63.8126 22.4821 64.4073 22.5019C65.4514 22.5349 65.9536 22.5944 65.9536 22.6803C65.9536 22.7134 65.9933 22.7398 66.0462 22.7398C66.2444 22.7398 66.8854 23.0306 67.0836 23.209C67.2026 23.3147 67.3281 23.4006 67.3612 23.4006C67.4273 23.4006 67.6652 23.6715 67.6718 23.7508C67.6718 23.7773 67.7378 23.8698 67.8237 23.9491C67.9956 24.1209 68.0815 24.2531 68.2797 24.6694C68.3656 24.8478 68.4515 24.9866 68.478 24.9866C68.4978 24.9866 68.5374 25.1055 68.5639 25.2509C68.5903 25.3963 68.6299 25.5152 68.663 25.5152C68.6894 25.5152 68.7291 25.6408 68.7489 25.7861C68.7687 25.9381 68.815 26.0835 68.8414 26.1033C68.8744 26.1232 68.9207 26.1958 68.9471 26.2619C69.0198 26.447 69.2775 26.5263 69.6806 26.48C69.8855 26.4536 70.0507 26.4007 70.0507 26.3677C70.0507 26.3346 70.1366 26.3082 70.2423 26.3082C70.3547 26.3082 70.4538 26.2818 70.4736 26.2487C70.5 26.2157 70.6652 26.1694 70.8437 26.143C71.0287 26.1166 71.1741 26.0769 71.1741 26.0439C71.1741 26.0174 71.3062 25.9712 71.4714 25.9513C71.6366 25.9249 71.7688 25.8787 71.7688 25.8522C71.7688 25.8192 71.934 25.7729 72.1322 25.7465C72.3305 25.7267 72.4957 25.6804 72.4957 25.6474C72.4957 25.6209 72.6609 25.5747 72.8591 25.5483C73.0574 25.5284 73.2358 25.4756 73.2556 25.4425C73.2821 25.4095 73.368 25.383 73.4539 25.383C73.5398 25.383 73.6257 25.3566 73.6455 25.3236C73.6653 25.2971 73.7711 25.2509 73.8768 25.2311C74.1015 25.1848 74.346 24.9998 74.346 24.8742C74.346 24.828 74.379 24.7883 74.412 24.7883C74.4517 24.7883 74.4781 24.6562 74.4781 24.4976C74.4781 24.3324 74.4517 24.1804 74.412 24.1605C74.379 24.1407 74.346 24.0548 74.346 23.9755C74.346 23.8962 74.2997 23.7442 74.2468 23.6385C74.194 23.5394 74.1477 23.3874 74.1477 23.3081C74.1477 23.2354 74.1015 23.1099 74.0486 23.0438C73.9957 22.9711 73.9495 22.8455 73.9495 22.7596C73.9495 22.6737 73.923 22.6076 73.8834 22.6076C73.8504 22.6076 73.8173 22.5746 73.8173 22.5349C73.8173 22.4557 73.6455 22.0393 73.5464 21.8807C73.5133 21.8279 73.4671 21.7354 73.4473 21.6825C73.4274 21.6296 73.3812 21.5371 73.3481 21.4843C73.3151 21.4314 73.2688 21.3389 73.2424 21.286C73.216 21.2331 73.1829 21.1737 73.1565 21.1538C73.1367 21.134 73.0442 21.0019 72.9583 20.8565C72.76 20.5327 72.7336 20.493 72.3834 20.1032C72.2248 19.9247 72.0992 19.7595 72.0992 19.7265C72.0992 19.6935 72.0001 19.5943 71.8811 19.5018C71.7688 19.4093 71.5177 19.1978 71.3327 19.0194C71.1476 18.8476 70.9626 18.7088 70.923 18.7088C70.8767 18.7088 70.8437 18.6824 70.8437 18.6494C70.8437 18.5833 70.5926 18.4247 70.3679 18.3388C70.3018 18.319 70.2489 18.2727 70.2489 18.2463C70.2489 18.2132 70.163 18.1736 70.0507 18.1472C69.945 18.1207 69.8524 18.0745 69.8524 18.0414C69.8524 18.0084 69.7798 17.9687 69.6872 17.9423C69.5947 17.9225 69.522 17.8762 69.522 17.8498C69.522 17.8167 69.4361 17.7771 69.3238 17.7507C69.2181 17.7308 69.0132 17.6515 68.8612 17.5789C68.7158 17.5062 68.4978 17.4335 68.3788 17.407C68.2665 17.3872 68.1343 17.341 68.0947 17.3145C68.055 17.2815 67.8568 17.2418 67.6519 17.2154C67.4471 17.189 67.2753 17.1493 67.2753 17.1229C67.2753 17.0899 67.0572 17.0502 66.7995 17.0238C66.5352 17.0039 66.2312 16.9577 66.1189 16.9247C65.8347 16.8454 63.9117 16.7991 63.2113 16.8586Z" fill="black"/>
<path id="Vector_3" d="M86.2075 17.3343C86.1348 17.3739 86.0357 17.4268 85.9828 17.4532C85.9299 17.4731 85.8573 17.5524 85.8176 17.625C85.778 17.6911 85.7251 17.7638 85.7053 17.7836C85.6788 17.8035 85.6392 17.8894 85.6128 17.9819C85.5863 18.0744 85.5467 18.1603 85.5202 18.1801C85.4608 18.233 85.2493 18.6427 85.2493 18.722C85.2493 18.755 85.203 18.8277 85.1502 18.8806C85.0973 18.9401 85.0511 19.0392 85.0511 19.1119C85.0511 19.178 85.0246 19.2374 84.9916 19.2374C84.9585 19.2374 84.9123 19.3233 84.8859 19.4357C84.8594 19.5414 84.8198 19.6339 84.7867 19.6339C84.7603 19.6339 84.714 19.7132 84.6942 19.8123C84.6414 20.037 84.3242 20.6912 84.2118 20.8102C84.1656 20.8564 84.1259 20.9357 84.1259 20.9754C84.1259 21.0216 84.0334 21.2331 83.9277 21.4511C83.8219 21.6692 83.7294 21.8873 83.7294 21.9269C83.7294 21.9732 83.703 22.0128 83.67 22.0128C83.6369 22.0128 83.5907 22.0987 83.5642 22.2111C83.5378 22.3168 83.4915 22.4093 83.4585 22.4093C83.4255 22.4093 83.399 22.4424 83.399 22.4754C83.399 22.5151 83.2669 22.8256 83.1017 23.156C82.9365 23.4931 82.8043 23.8036 82.8043 23.8499C82.8043 23.8962 82.7779 23.9292 82.7382 23.9292C82.7052 23.9292 82.6721 23.9622 82.6721 24.0085C82.6721 24.101 82.269 24.9402 82.203 24.9865C82.1765 25.0063 82.1303 25.1054 82.1104 25.2046C82.084 25.3037 82.0378 25.383 82.0047 25.383C81.9717 25.383 81.9452 25.4358 81.9452 25.5019C81.9452 25.568 81.9056 25.6737 81.8527 25.7464C81.8065 25.8191 81.7404 25.9777 81.714 26.0901C81.6941 26.209 81.6479 26.3081 81.6148 26.3081C81.5884 26.3081 81.5421 26.3874 81.5157 26.4865C81.4959 26.5857 81.4496 26.6848 81.4298 26.7046C81.3439 26.7707 81.1523 27.154 81.1523 27.2597C81.1523 27.3192 81.1258 27.3654 81.0928 27.3654C81.0598 27.3654 81.0135 27.4513 80.9871 27.5637C80.9606 27.6694 80.9144 27.7619 80.8813 27.7619C80.8483 27.7619 80.8219 27.8016 80.8219 27.8412C80.8219 27.9271 80.4716 28.654 80.3659 28.7796C80.3329 28.8192 80.2866 28.9514 80.2602 29.0637C80.2403 29.1827 80.1941 29.2818 80.161 29.2818C80.128 29.2818 80.0884 29.3677 80.0619 29.48C80.0355 29.5857 79.9892 29.6783 79.9562 29.6783C79.9232 29.6783 79.8967 29.7245 79.8967 29.7774C79.8967 29.8897 79.4936 30.6893 79.4209 30.7223C79.3879 30.7356 79.3681 30.7752 79.3681 30.8083C79.3681 30.8479 79.2822 31.0594 79.1764 31.284C79.0707 31.5087 78.965 31.7664 78.9385 31.8589C78.9121 31.9515 78.8725 32.0374 78.846 32.0572C78.78 32.1101 78.3769 32.9493 78.3769 33.0352C78.3769 33.0814 78.3504 33.1145 78.3174 33.1145C78.2843 33.1145 78.2381 33.2004 78.2117 33.3127C78.1852 33.4185 78.139 33.511 78.1059 33.511C78.0729 33.511 78.0464 33.5506 78.0464 33.5903C78.0464 33.6365 77.9539 33.8546 77.8482 34.0727C77.7425 34.2907 77.65 34.5088 77.65 34.5485C77.65 34.5947 77.6235 34.6344 77.5905 34.6344C77.5574 34.6344 77.5112 34.7203 77.4848 34.8326C77.4583 34.9449 77.4121 35.0308 77.379 35.0308C77.346 35.0308 77.3196 35.0705 77.3196 35.1101C77.3129 35.1564 77.2601 35.315 77.1874 35.4604C77.1147 35.6058 77.0618 35.7908 77.0552 35.8701C77.0552 35.9494 77.0288 36.0353 76.9891 36.0551C76.9099 36.108 76.9032 36.597 76.9825 36.6432C77.0156 36.663 77.0618 36.8679 77.0883 37.0926C77.1147 37.3239 77.161 37.5353 77.1874 37.575C77.2138 37.608 77.2601 37.7996 77.2865 37.9847C77.3129 38.1763 77.3592 38.3481 77.3922 38.3746C77.4253 38.3944 77.4517 38.4935 77.4517 38.5926C77.4517 38.771 77.5376 39.1213 77.7557 39.7887C77.8086 39.9539 77.8482 40.1654 77.8482 40.2645C77.8482 40.3636 77.8746 40.4561 77.9077 40.4825C77.9407 40.5024 77.987 40.6015 78.0068 40.7006C78.0332 40.8063 78.1324 40.9253 78.2513 40.9914C78.4363 41.1037 78.8262 41.1103 83.736 41.1103H89.0159L89.0424 41.2557C89.0622 41.3416 89.0886 42.2932 89.1018 43.3769C89.1217 45.1347 89.1349 45.3527 89.234 45.4585C89.3397 45.5642 89.571 45.5708 91.983 45.5708C94.4676 45.5708 94.613 45.5642 94.732 45.4452C94.8509 45.3329 94.8641 45.1611 94.8972 43.2315L94.9302 41.1434L96.536 41.1235C98.0294 41.1103 98.1484 41.0971 98.2673 40.9782C98.3929 40.8526 98.3995 40.7403 98.3995 38.4406L98.4061 36.0287L98.2541 35.8767C98.1087 35.7247 98.0691 35.7247 96.5029 35.7049L94.9038 35.685L94.8839 32.4272L94.8641 29.1628L94.6989 29.0241C94.5403 28.8919 94.4676 28.8919 92.0358 28.8853C89.2472 28.8853 89.1944 28.8919 89.1283 29.3082C89.1084 29.4205 89.0952 30.8743 89.0952 32.533C89.0952 34.1982 89.0688 35.5859 89.049 35.6256C88.9961 35.7181 83.1611 35.7181 83.1017 35.6256C83.0818 35.5859 83.0884 35.5595 83.1281 35.5595C83.1611 35.5595 83.2074 35.4736 83.2338 35.3612C83.2603 35.2555 83.2999 35.163 83.3329 35.163C83.366 35.163 83.4056 35.0771 83.4321 34.9648C83.4585 34.859 83.5048 34.7665 83.5378 34.7665C83.5708 34.7665 83.5973 34.7269 83.5973 34.674C83.5973 34.5749 83.7955 34.1652 83.8748 34.1057C83.8946 34.0859 83.9409 33.9868 83.9607 33.8876C83.9872 33.7885 84.0334 33.7092 84.0598 33.7092C84.0929 33.7092 84.1325 33.6167 84.159 33.511C84.1854 33.3986 84.225 33.3127 84.2581 33.3127C84.2911 33.3127 84.3308 33.2202 84.3572 33.1145C84.3836 33.0021 84.4299 32.9162 84.4629 32.9162C84.496 32.9162 84.5224 32.8766 84.5224 32.8237C84.5224 32.7246 84.7207 32.3149 84.8 32.2554C84.8198 32.2356 84.866 32.1365 84.8859 32.0374C84.9123 31.9382 84.9585 31.8589 84.985 31.8589C85.018 31.8589 85.0577 31.7664 85.0841 31.6607C85.1105 31.5484 85.1502 31.4625 85.1832 31.4625C85.2163 31.4625 85.2559 31.3699 85.2823 31.2642C85.3088 31.1519 85.355 31.066 85.3881 31.066C85.4211 31.066 85.4475 30.9933 85.4475 30.9008C85.4475 30.8083 85.474 30.7356 85.507 30.7356C85.5401 30.7356 85.5863 30.6629 85.6061 30.5704C85.6326 30.4778 85.6722 30.4052 85.7053 30.4052C85.7383 30.4052 85.7846 30.3126 85.811 30.2069C85.8374 30.0946 85.8771 30.0087 85.9101 30.0087C85.9432 30.0087 85.9828 29.9162 86.0092 29.8104C86.0357 29.6981 86.0819 29.6122 86.115 29.6122C86.148 29.6122 86.1744 29.5791 86.1744 29.5395C86.1744 29.4404 86.5775 28.6011 86.6436 28.5549C86.6701 28.5351 86.7163 28.4359 86.7361 28.3368C86.7626 28.2377 86.8088 28.1584 86.8353 28.1584C86.8683 28.1584 86.9079 28.0659 86.9344 27.9601C86.9608 27.8478 87.0071 27.7619 87.0401 27.7619C87.0731 27.7619 87.0996 27.7223 87.0996 27.6694C87.0996 27.5703 87.6943 26.361 87.7736 26.3081C87.7934 26.2883 87.8397 26.1892 87.8595 26.0901C87.8859 25.9909 87.9322 25.9116 87.9652 25.9116C87.9983 25.9116 88.0247 25.872 88.0247 25.8257C88.0247 25.7861 88.1172 25.568 88.223 25.3499C88.3287 25.1319 88.4212 24.9138 88.4212 24.8675C88.4212 24.8279 88.4476 24.7883 88.4873 24.7883C88.5203 24.7883 88.5732 24.709 88.593 24.6098C88.6194 24.5107 88.6789 24.3852 88.7318 24.3389C88.778 24.2926 88.8177 24.2067 88.8177 24.1539C88.8177 24.101 88.8507 24.0614 88.8838 24.0614C88.9234 24.0614 88.9499 24.0217 88.9499 23.9688C88.9499 23.916 89.0424 23.6979 89.1481 23.4865C89.2604 23.2816 89.3463 23.0701 89.3463 23.0239C89.3463 22.9776 89.3728 22.938 89.4124 22.938C89.4455 22.938 89.4983 22.8587 89.5182 22.7596C89.5446 22.6604 89.6041 22.5349 89.6569 22.4886C89.7032 22.4424 89.7428 22.3565 89.7428 22.3036C89.7428 22.2507 89.7759 22.2111 89.8089 22.2111C89.8486 22.2111 89.875 22.1714 89.875 22.1252C89.875 22.0855 89.9675 21.8675 90.0732 21.6494C90.179 21.4313 90.2715 21.2133 90.2715 21.167C90.2715 21.1273 90.2979 21.0877 90.3376 21.0877C90.3706 21.0877 90.4169 21.015 90.4433 20.9225C90.4631 20.83 90.5094 20.7573 90.5358 20.7573C90.5688 20.7573 90.6085 20.6648 90.6349 20.5591C90.6614 20.4467 90.7076 20.3608 90.7407 20.3608C90.7737 20.3608 90.8001 20.3079 90.8001 20.2419C90.8001 20.1758 90.8464 20.0634 90.8993 19.9908C90.9521 19.9247 90.9984 19.8123 90.9984 19.7463C90.9984 19.6868 91.0248 19.6339 91.0578 19.6339C91.0909 19.6339 91.1371 19.5414 91.1636 19.4357C91.19 19.3233 91.2363 19.2374 91.2693 19.2374C91.3023 19.2374 91.342 19.1647 91.3684 19.0722C91.3883 18.9797 91.4345 18.907 91.4675 18.907C91.5006 18.907 91.527 18.8343 91.527 18.7418C91.527 18.6493 91.5667 18.5568 91.6195 18.537C91.6658 18.5171 91.7253 18.385 91.7517 18.2396C91.7715 18.1008 91.8244 17.9819 91.8574 17.9819C92.0028 17.9819 91.9169 17.6515 91.7187 17.4598L91.5138 17.255L88.93 17.2616C87.1789 17.2616 86.3 17.288 86.2075 17.3343Z" fill="black"/>
<path id="Vector_4" d="M16.3928 19.8981C16.3928 19.9311 16.3466 19.9641 16.2871 19.9641C16.2342 19.9641 16.0955 20.0501 15.9897 20.1624L15.7915 20.354L15.8113 30.7023C15.8245 38.2951 15.851 41.0639 15.9038 41.0969C15.9435 41.1234 16.003 41.3018 16.0294 41.4868C16.0558 41.6784 16.1021 41.837 16.1351 41.837C16.1682 41.837 16.1946 41.8965 16.1946 41.9626C16.1946 42.0353 16.2409 42.1741 16.2937 42.2798C16.34 42.3789 16.4523 42.6102 16.5382 42.782C16.7893 43.304 16.8158 43.3569 16.8686 43.3569C16.9017 43.3569 16.9215 43.3966 16.9215 43.4494C16.9215 43.5023 16.9611 43.5882 17.0074 43.6344C17.2915 43.945 17.7145 44.5662 17.6748 44.6257C17.6484 44.6719 17.655 44.6785 17.7079 44.6521C17.7541 44.6191 17.9193 44.7446 18.1308 44.9561C18.3224 45.1477 18.5273 45.3327 18.5801 45.3724C18.6396 45.4054 18.9171 45.5971 19.2079 45.7821C19.4921 45.9737 19.7696 46.1323 19.8159 46.1323C19.8555 46.1323 19.8951 46.1588 19.8951 46.1918C19.8951 46.2248 19.9877 46.2711 20.0934 46.2975C20.2057 46.324 20.2916 46.3702 20.2916 46.4033C20.2916 46.4363 20.3511 46.4627 20.4238 46.4627C20.4899 46.4627 20.6485 46.5024 20.7674 46.5552C21.1243 46.7138 21.6595 46.8592 21.8578 46.8592C21.9635 46.8592 22.089 46.8989 22.1287 46.9385C22.1948 47.0046 24.3028 47.031 32.107 47.0442C37.5454 47.0575 42.0918 47.0442 42.2042 47.0244C42.3165 47.0046 42.5081 46.8989 42.6337 46.7865C42.8452 46.6015 42.8584 46.5552 42.8782 46.1059L42.9046 45.6235L42.528 45.2138C42.3165 44.9957 42.1117 44.8107 42.0588 44.8107C42.0125 44.8107 41.9597 44.7578 41.9398 44.6917C41.9002 44.586 35.5894 38.262 35.2128 37.9581C35.1137 37.8722 34.889 37.7929 34.6973 37.7664C34.5189 37.74 34.3669 37.7004 34.3669 37.6673C34.3669 37.6343 32.3779 37.6012 29.9527 37.5946C25.9218 37.5748 25.5253 37.5682 25.4261 37.4625C25.3667 37.403 25.3138 37.3237 25.3138 37.2906C25.3138 37.2576 25.2676 37.1915 25.2147 37.1453C25.1354 37.0792 25.1156 36.4316 25.1024 32.5262C25.0825 27.7816 25.0957 27.9798 24.8182 27.5701C24.7389 27.4512 17.3246 20.0368 17.166 19.9113C17.0404 19.8188 16.3928 19.8056 16.3928 19.8981Z" fill="black"/>
</g>
</g>
</svg>
