<svg width="64" height="58" viewBox="0 0 64 58" fill="none" xmlns="http://www.w3.org/2000/svg">
<g id="image-159-copy 1" clip-path="url(#clip0_4569_39625)">
<g id="Group">
<path id="Vector" d="M3.71631 29.2111V57.3984H32.0955H60.4747V29.2111V1.02381H32.0955H3.71631V29.2111ZM13.9244 10.4643V14.0717H13.176H12.4277V10.4643V6.85699H13.176H13.9244V10.4643ZM30.1959 6.94909C30.1959 7.01817 30.2189 7.04503 30.2841 7.05655C30.3455 7.06422 30.3724 7.09876 30.3801 7.17167C30.3877 7.24843 30.4146 7.27913 30.4645 7.27913C30.5221 7.27913 30.5413 7.3175 30.5643 7.45182C30.5835 7.60149 30.6027 7.62451 30.6794 7.62451C30.7523 7.62451 30.7715 7.6437 30.7715 7.72046C30.7715 7.79721 30.7907 7.81639 30.8674 7.81639C30.9442 7.81639 30.9634 7.83558 30.9634 7.91233C30.9634 7.98909 30.9826 8.00827 31.0593 8.00827C31.1399 8.00827 31.1553 8.02746 31.1553 8.1234C31.1553 8.21167 31.1745 8.23853 31.2282 8.23853C31.2896 8.23853 31.3088 8.27307 31.3318 8.41122C31.351 8.56089 31.3702 8.58392 31.4469 8.58392C31.5198 8.58392 31.539 8.6031 31.539 8.67986C31.539 8.75661 31.5582 8.7758 31.635 8.7758C31.7117 8.7758 31.7309 8.79499 31.7309 8.87174C31.7309 8.94081 31.7501 8.96768 31.8038 8.96768C31.8537 8.96768 31.8844 8.99838 31.8921 9.0521C31.8998 9.10967 31.9343 9.14421 31.9919 9.15189C32.0648 9.1634 32.0763 9.18642 32.0763 9.33609C32.0763 9.48959 32.084 9.50494 32.1722 9.50494C32.249 9.50494 32.2682 9.52413 32.2682 9.60089C32.2682 9.67764 32.2874 9.69683 32.3641 9.69683C32.4409 9.69683 32.4601 9.71601 32.4601 9.79277C32.4601 9.86952 32.4792 9.88871 32.556 9.88871C32.6366 9.88871 32.6519 9.90789 32.6519 10.0038C32.6519 10.0921 32.6711 10.119 32.7249 10.119C32.7863 10.119 32.8054 10.1535 32.8285 10.2917C32.8477 10.4413 32.8668 10.4643 32.9436 10.4643C33.0165 10.4643 33.0357 10.4835 33.0357 10.5603C33.0357 10.637 33.0549 10.6562 33.1316 10.6562C33.2084 10.6562 33.2276 10.6754 33.2276 10.7522C33.2276 10.8289 33.2468 10.8481 33.3235 10.8481C33.4003 10.8481 33.4195 10.8673 33.4195 10.9441C33.4195 11.0208 33.4387 11.04 33.5154 11.04C33.6037 11.04 33.6113 11.0553 33.6113 11.2088C33.6113 11.3585 33.6229 11.3815 33.6996 11.3931C33.7533 11.4007 33.7879 11.4353 33.7956 11.489C33.8032 11.5427 33.8378 11.5773 33.8915 11.5849C33.9452 11.5926 33.9798 11.6271 33.9874 11.6809C33.9951 11.7384 34.0258 11.7691 34.0757 11.7691C34.1486 11.7691 34.1486 11.7154 34.1486 9.31306V6.85699H34.8202H35.4918V10.4643V14.0717H34.8509C34.1294 14.0717 34.0335 14.0564 34.0335 13.9527C34.0335 13.9105 34.0181 13.8798 33.9951 13.8798C33.9759 13.8798 33.9567 13.8376 33.9567 13.7877C33.9567 13.7187 33.9337 13.6918 33.8723 13.6803C33.8147 13.6726 33.7802 13.6381 33.7725 13.5805C33.7649 13.5268 33.7341 13.4961 33.6843 13.4961C33.6305 13.4961 33.6113 13.4692 33.6113 13.4001C33.6113 13.3234 33.5922 13.3042 33.5154 13.3042C33.4387 13.3042 33.4195 13.285 33.4195 13.2044C33.4195 13.1392 33.3964 13.097 33.3427 13.0854C33.2928 13.0701 33.2583 13.0164 33.2391 12.9051C33.2122 12.7823 33.1854 12.7439 33.1201 12.7362C33.0664 12.7285 33.0357 12.6978 33.0357 12.6518C33.0357 12.6057 33.005 12.575 32.9513 12.5674C32.8975 12.5597 32.8592 12.5213 32.8438 12.4599C32.8285 12.3985 32.7901 12.3601 32.7402 12.3525C32.6865 12.3448 32.6519 12.3064 32.6443 12.2565C32.6366 12.2028 32.6021 12.1683 32.5483 12.1606C32.4831 12.1491 32.4601 12.1222 32.4601 12.0531C32.4601 11.9879 32.437 11.961 32.3871 11.961C32.3257 11.961 32.3066 11.9265 32.2835 11.7883C32.2643 11.6387 32.2452 11.6156 32.1684 11.6156C32.0955 11.6156 32.0763 11.5964 32.0763 11.5197C32.0763 11.4429 32.0571 11.4238 31.9804 11.4238C31.9036 11.4238 31.8844 11.4046 31.8844 11.3316C31.8844 11.2626 31.8614 11.2357 31.8 11.2242C31.7232 11.2127 31.7117 11.1858 31.7002 11.0285C31.6887 10.8673 31.681 10.8481 31.5928 10.8481C31.5198 10.8481 31.5007 10.8289 31.5007 10.7522C31.5007 10.6754 31.4815 10.6562 31.4047 10.6562C31.328 10.6562 31.3088 10.637 31.3088 10.5603C31.3088 10.4835 31.2896 10.4643 31.2128 10.4643C31.1361 10.4643 31.1169 10.4452 31.1169 10.3684C31.1169 10.2993 31.0977 10.2725 31.0401 10.2725C30.9826 10.2725 30.9634 10.2456 30.9634 10.1765C30.9634 10.0998 30.9442 10.0806 30.8674 10.0806C30.7907 10.0806 30.7715 10.0614 30.7715 9.98081C30.7715 9.91557 30.7485 9.87336 30.6948 9.86184C30.641 9.84649 30.6103 9.7966 30.595 9.69299C30.572 9.56635 30.5566 9.54332 30.4799 9.54332C30.4069 9.54332 30.3877 9.52413 30.3877 9.44738C30.3877 9.37063 30.3686 9.35144 30.2918 9.35144H30.1959V11.7116V14.0717H29.4475H28.6992V10.4643V6.85699H29.4475H30.1959V6.94909ZM54.4112 6.95293C54.4112 7.02968 54.4304 7.04887 54.5072 7.04887C54.5954 7.04887 54.6031 7.06422 54.6031 7.21772C54.6031 7.49787 54.5647 7.62451 54.4803 7.62451C54.4381 7.62451 54.3959 7.65905 54.3844 7.70127C54.3729 7.74348 54.3306 7.77802 54.2923 7.77802C54.2385 7.77802 54.2193 7.80488 54.2193 7.89315C54.2193 7.98909 54.204 8.00827 54.1272 8.00827C54.0582 8.00827 54.0313 8.0313 54.0198 8.0927C54.0121 8.15026 53.9776 8.18481 53.9239 8.19248C53.8586 8.20399 53.8356 8.23086 53.8356 8.29993C53.8356 8.37285 53.8164 8.39204 53.7396 8.39204C53.6706 8.39204 53.6437 8.41122 53.6437 8.46495C53.6437 8.51484 53.613 8.54554 53.5593 8.55322C53.494 8.56089 53.4672 8.59543 53.4595 8.66835C53.448 8.75277 53.425 8.7758 53.352 8.7758C53.2791 8.7758 53.2599 8.79499 53.2599 8.87174C53.2599 8.94849 53.2408 8.96768 53.164 8.96768C53.0949 8.96768 53.0681 8.98687 53.0681 9.04059C53.0681 9.09048 53.0374 9.12119 52.9836 9.12886C52.9261 9.13654 52.8915 9.17107 52.8839 9.2248C52.8762 9.27853 52.8416 9.31306 52.7879 9.32074C52.7342 9.32841 52.6997 9.36295 52.692 9.41668C52.6843 9.47041 52.6498 9.50494 52.596 9.51262C52.5423 9.52029 52.5078 9.55484 52.5001 9.60856C52.4924 9.66613 52.4617 9.69683 52.4118 9.69683C52.3619 9.69683 52.3389 9.72369 52.3389 9.78893C52.3389 9.86184 52.3159 9.88487 52.2353 9.89638C52.1586 9.90406 52.124 9.93092 52.1163 9.99232C52.1087 10.0499 52.078 10.0806 52.0281 10.0806C51.9743 10.0806 51.9552 10.1075 51.9552 10.1765C51.9552 10.2533 51.936 10.2725 51.8592 10.2725C51.7825 10.2725 51.7633 10.2917 51.7633 10.3684C51.7633 10.4452 51.7441 10.4643 51.6673 10.4643C51.5906 10.4643 51.5714 10.4835 51.5714 10.5603C51.5714 10.637 51.5522 10.6562 51.4755 10.6562C51.3987 10.6562 51.3795 10.6754 51.3795 10.7522C51.3795 10.8289 51.3603 10.8481 51.2836 10.8481C51.2068 10.8481 51.1876 10.8673 51.1876 10.9441C51.1876 11.0208 51.1684 11.04 51.0917 11.04C51.0149 11.04 50.9958 11.0592 50.9958 11.1359C50.9958 11.2127 50.9766 11.2319 50.8998 11.2319C50.8231 11.2319 50.8039 11.2511 50.8039 11.3278C50.8039 11.4046 50.7847 11.4238 50.7079 11.4238C50.6389 11.4238 50.612 11.4429 50.612 11.4967C50.612 11.5466 50.5813 11.5773 50.5276 11.5849C50.4623 11.5926 50.4355 11.6271 50.4278 11.7001C50.4163 11.7845 50.3932 11.8075 50.3203 11.8075C50.2551 11.8075 50.2282 11.8305 50.2282 11.8804C50.2282 11.9303 50.1975 11.961 50.1438 11.9687C50.0862 11.9764 50.0517 12.0109 50.044 12.0646C50.0363 12.1184 50.0018 12.1529 49.9481 12.1606C49.8944 12.1683 49.8598 12.2028 49.8521 12.2565C49.8445 12.3102 49.8099 12.3448 49.7562 12.3525C49.7025 12.3601 49.6679 12.3947 49.6603 12.4484C49.6526 12.506 49.6219 12.5367 49.5758 12.5367C49.5298 12.5367 49.4991 12.5674 49.4914 12.6211C49.4837 12.6787 49.4492 12.7132 49.3955 12.7209C49.3302 12.7285 49.3072 12.7592 49.3072 12.8245C49.3072 12.8936 49.2842 12.9166 49.2036 12.9281C49.1268 12.9358 49.0923 12.9626 49.0846 13.024C49.0769 13.0816 49.0462 13.1123 48.9964 13.1123C48.9426 13.1123 48.9234 13.1392 48.9234 13.2082C48.9234 13.285 48.9043 13.3042 48.8275 13.3042C48.7507 13.3042 48.7316 13.3234 48.7316 13.4001C48.7316 13.4769 48.7124 13.4961 48.6356 13.4961C48.5589 13.4961 48.5397 13.5153 48.5397 13.592C48.5397 13.6688 48.5205 13.6879 48.4437 13.6879C48.367 13.6879 48.3478 13.7071 48.3478 13.7839C48.3478 13.8606 48.3286 13.8798 48.2519 13.8798C48.1828 13.8798 48.1559 13.899 48.1559 13.9527C48.1559 14.0026 48.1175 14.0295 48.0369 14.0487C47.8182 14.0909 47.7722 14.0794 47.7722 13.9758C47.7722 13.899 47.753 13.8798 47.6762 13.8798C47.5995 13.8798 47.5803 13.8606 47.5803 13.7839C47.5803 13.7071 47.5611 13.6879 47.4843 13.6879C47.3807 13.6879 47.373 13.6572 47.4114 13.4654C47.4344 13.3579 47.4536 13.3426 47.6033 13.3195C47.7491 13.3004 47.7722 13.2812 47.7722 13.2044C47.7722 13.1315 47.7913 13.1123 47.8681 13.1123C47.9448 13.1123 47.964 13.0931 47.964 13.0164C47.964 12.9396 47.9832 12.9204 48.06 12.9204C48.1367 12.9204 48.1559 12.9012 48.1559 12.8245C48.1559 12.7477 48.1751 12.7285 48.2519 12.7285C48.3286 12.7285 48.3478 12.7094 48.3478 12.6326C48.3478 12.5559 48.367 12.5367 48.4437 12.5367C48.5205 12.5367 48.5397 12.5175 48.5397 12.4407C48.5397 12.364 48.5589 12.3448 48.6356 12.3448C48.7124 12.3448 48.7316 12.3256 48.7316 12.2488C48.7316 12.1721 48.7507 12.1529 48.8275 12.1529C48.9043 12.1529 48.9234 12.1337 48.9234 12.057C48.9234 11.9802 48.9426 11.961 49.0194 11.961C49.0961 11.961 49.1153 11.9418 49.1153 11.8651C49.1153 11.7883 49.1345 11.7691 49.2113 11.7691C49.288 11.7691 49.3072 11.75 49.3072 11.6732C49.3072 11.6041 49.3264 11.5773 49.3801 11.5773C49.43 11.5773 49.4607 11.5466 49.4684 11.489C49.4761 11.4353 49.5106 11.4007 49.5682 11.3931C49.6219 11.3854 49.6526 11.3547 49.6526 11.3048C49.6526 11.2511 49.6794 11.2319 49.7485 11.2319C49.8253 11.2319 49.8445 11.2127 49.8445 11.1359C49.8445 11.0592 49.8637 11.04 49.9404 11.04C50.0172 11.04 50.0363 11.0208 50.0363 10.9441C50.0363 10.8673 50.0555 10.8481 50.1323 10.8481C50.209 10.8481 50.2282 10.8289 50.2282 10.7522C50.2282 10.6754 50.2474 10.6562 50.3242 10.6562C50.4009 10.6562 50.4201 10.637 50.4201 10.5603C50.4201 10.4835 50.4393 10.4643 50.516 10.4643C50.5928 10.4643 50.612 10.4452 50.612 10.3684C50.612 10.2917 50.6312 10.2725 50.7079 10.2725C50.7847 10.2725 50.8039 10.2533 50.8039 10.1765C50.8039 10.0998 50.8231 10.0806 50.8998 10.0806C50.9766 10.0806 50.9958 10.0614 50.9958 9.98465C50.9958 9.90789 51.0149 9.88871 51.0917 9.88871C51.1684 9.88871 51.1876 9.86952 51.1876 9.79277C51.1876 9.71601 51.2068 9.69683 51.2836 9.69683C51.3603 9.69683 51.3795 9.67764 51.3795 9.60089C51.3795 9.52413 51.3987 9.50494 51.4755 9.50494C51.5522 9.50494 51.5714 9.48576 51.5714 9.409C51.5714 9.33225 51.5906 9.31306 51.6673 9.31306C51.7441 9.31306 51.7633 9.29388 51.7633 9.21712C51.7633 9.14037 51.7825 9.12119 51.8592 9.12119C51.936 9.12119 51.9552 9.102 51.9552 9.02524C51.9552 8.94849 51.9743 8.9293 52.0511 8.9293C52.1202 8.9293 52.147 8.91011 52.147 8.85255C52.147 8.80266 52.1739 8.7758 52.2238 8.7758C52.2814 8.7758 52.3005 8.74894 52.3005 8.67986C52.3005 8.6031 52.3197 8.58392 52.3965 8.58392C52.4732 8.58392 52.4924 8.56473 52.4924 8.48798C52.4924 8.41122 52.5116 8.39204 52.5884 8.39204C52.6651 8.39204 52.6843 8.37285 52.6843 8.2961C52.6843 8.21935 52.7035 8.20016 52.7802 8.20016C52.857 8.20016 52.8762 8.18097 52.8762 8.10421C52.8762 8.02746 52.8954 8.00827 52.9721 8.00827C53.0489 8.00827 53.0681 7.98909 53.0681 7.91233C53.0681 7.83558 53.0873 7.81639 53.164 7.81639C53.2408 7.81639 53.2599 7.79721 53.2599 7.72046C53.2599 7.6437 53.2791 7.62451 53.3559 7.62451C53.4326 7.62451 53.4518 7.60532 53.4518 7.52857C53.4518 7.45182 53.471 7.43263 53.5478 7.43263C53.6245 7.43263 53.6437 7.41344 53.6437 7.33669C53.6437 7.25994 53.6629 7.24075 53.7358 7.24075C53.8126 7.24075 53.8317 7.21772 53.8509 7.0719C53.8816 6.88385 53.9008 6.87234 54.2309 6.86083C54.3997 6.85699 54.4112 6.86467 54.4112 6.95293ZM32.8438 25.9683C32.8438 26.1487 32.8515 26.1602 32.9398 26.1602C33.028 26.1602 33.0357 26.1717 33.0357 26.3482C33.0357 26.5171 33.0472 26.5401 33.124 26.5516C33.1969 26.5632 33.2084 26.59 33.2199 26.7435C33.2314 26.9085 33.2391 26.9277 33.3274 26.9277C33.4118 26.9277 33.4195 26.9431 33.4195 27.1196C33.4195 27.2846 33.431 27.3115 33.4962 27.3115C33.5576 27.3115 33.5768 27.346 33.596 27.5034C33.6113 27.63 33.6382 27.6953 33.6766 27.6953C33.7457 27.6953 33.8032 27.8564 33.8032 28.0637C33.8032 28.2172 33.8109 28.2325 33.8992 28.2325C33.9874 28.2325 33.9951 28.244 33.9951 28.4206C33.9951 28.5894 34.0066 28.6124 34.0834 28.624C34.1563 28.6355 34.1678 28.6623 34.1793 28.8158C34.1908 28.9655 34.2023 28.9962 34.2753 29.0077C34.3482 29.0192 34.3597 29.0461 34.3712 29.1996C34.3827 29.3493 34.3981 29.3838 34.4556 29.3838C34.5132 29.3838 34.5324 29.4222 34.5516 29.5949C34.5707 29.733 34.5976 29.8059 34.6322 29.8059C34.659 29.8059 34.6936 29.875 34.7127 29.9671C34.7396 30.0976 34.7626 30.136 34.8317 30.1437C34.9046 30.1552 34.9161 30.1782 34.9161 30.347C34.9161 30.5082 34.9276 30.5351 34.9929 30.5351C35.0543 30.5351 35.0735 30.5696 35.0927 30.727C35.1119 30.8728 35.1349 30.9188 35.1848 30.9188C35.2577 30.9188 35.2999 31.057 35.2999 31.3064C35.2999 31.4408 35.3114 31.4561 35.3958 31.4561C35.4841 31.4561 35.4918 31.4676 35.4918 31.648C35.4918 31.8284 35.4995 31.8399 35.5877 31.8399C35.676 31.8399 35.6837 31.8514 35.6837 32.0318C35.6837 32.2121 35.6913 32.2236 35.7796 32.2236C35.8717 32.2236 35.8755 32.2352 35.8755 32.4347C35.8755 32.5959 35.8909 32.6458 35.9331 32.6458C36.0022 32.6458 36.0674 32.7647 36.0674 32.8914V32.9912H35.2999H34.5324V32.7993C34.5324 32.6189 34.5247 32.6074 34.4364 32.6074C34.3482 32.6074 34.3405 32.5959 34.3405 32.4155C34.3405 32.2352 34.3328 32.2236 34.2446 32.2236C34.1563 32.2236 34.1486 32.2121 34.1486 32.0318V31.8399H32.0763H30.004V32.0318C30.004 32.2121 29.9963 32.2236 29.908 32.2236C29.8198 32.2236 29.8121 32.2352 29.8121 32.4155C29.8121 32.5959 29.8044 32.6074 29.7162 32.6074C29.6279 32.6074 29.6202 32.6189 29.6202 32.7993V32.9912H28.8719C28.2464 32.9912 28.1159 32.9835 28.1005 32.9336C28.0737 32.8645 28.1658 32.6458 28.2233 32.6458C28.2502 32.6458 28.2809 32.5537 28.2962 32.4347C28.3154 32.2659 28.3346 32.2236 28.3922 32.2236C28.4459 32.2236 28.4689 32.1814 28.4881 32.0318C28.5073 31.8783 28.5303 31.8399 28.5841 31.8399C28.6416 31.8399 28.657 31.8053 28.6685 31.6557C28.68 31.5022 28.6915 31.4753 28.7683 31.4638C28.8412 31.4523 28.8527 31.4293 28.8527 31.2834C28.8527 31.0724 28.9103 30.9188 28.987 30.9188C29.0216 30.9188 29.0446 30.8843 29.0446 30.8267C29.0446 30.6848 29.1137 30.5351 29.1789 30.5351C29.2134 30.5351 29.2365 30.5005 29.2365 30.443C29.2365 30.301 29.3055 30.1513 29.3669 30.1513C29.4015 30.1513 29.4283 30.0899 29.4437 29.9786C29.4667 29.8405 29.4859 29.8059 29.5473 29.8059C29.6087 29.8059 29.6202 29.7791 29.6202 29.5949C29.6202 29.3953 29.6241 29.3838 29.7162 29.3838C29.8044 29.3838 29.8121 29.3723 29.8121 29.1919C29.8121 29.0116 29.8198 29 29.908 29C29.9963 29 30.004 28.9885 30.004 28.8082C30.004 28.6278 30.0117 28.6163 30.0999 28.6163C30.1882 28.6163 30.1959 28.6048 30.1959 28.4244C30.1959 28.244 30.2035 28.2325 30.2918 28.2325C30.3839 28.2325 30.3877 28.2248 30.3877 27.9677C30.3877 27.7183 30.3954 27.6991 30.476 27.6876C30.5489 27.6761 30.5604 27.6492 30.572 27.4957C30.5835 27.346 30.595 27.3153 30.6679 27.3038C30.7408 27.2923 30.7523 27.2654 30.7638 27.1119C30.7753 26.9623 30.7869 26.9316 30.8598 26.9201C30.9327 26.9085 30.9442 26.8817 30.9557 26.7243C30.9672 26.5747 30.9787 26.544 31.044 26.544C31.1054 26.544 31.1169 26.5171 31.1169 26.3521C31.1169 26.1717 31.1246 26.1602 31.2128 26.1602C31.3011 26.1602 31.3088 26.1449 31.3088 25.9952C31.3088 25.9031 31.3203 25.8148 31.3356 25.8033C31.3472 25.788 31.6925 25.7764 32.1032 25.7764H32.8438V25.9683ZM54.4036 26.4058C54.3997 26.7512 54.3767 27.0505 54.3613 27.0697C54.3422 27.0851 53.7512 27.1043 53.045 27.1119L51.7633 27.1234V30.0592V32.9912L51.0073 32.9835L50.2474 32.972L50.2397 30.1513C50.2359 28.6009 50.2321 27.2846 50.2321 27.2232L50.2282 27.1196H49.0002H47.7722V27.0237C47.7722 26.9469 47.753 26.9277 47.6762 26.9277H47.5803V26.3521V25.7764H50.9996H54.4189L54.4036 26.4058ZM17.9155 29.3838V29.7676H13.176H8.43658V29.3838V29H13.176H17.9155V29.3838ZM47.9487 44.7036C47.9755 44.8302 48.0024 44.8724 48.0676 44.8801C48.1214 44.8878 48.1559 44.9223 48.1636 44.976C48.1713 45.0298 48.2058 45.0643 48.2595 45.072C48.3133 45.0797 48.3478 45.1142 48.3555 45.1679C48.3631 45.2216 48.3977 45.2562 48.4552 45.2639C48.5167 45.2754 48.5397 45.3022 48.5397 45.3713C48.5397 45.4442 48.5589 45.4634 48.6356 45.4634C48.7124 45.4634 48.7316 45.4826 48.7316 45.5594C48.7316 45.6361 48.7507 45.6553 48.8275 45.6553C48.8966 45.6553 48.9234 45.6745 48.9234 45.7321C48.9234 45.7819 48.9503 45.8088 48.9964 45.8088C49.0386 45.8088 49.0846 45.8242 49.0961 45.8472C49.1076 45.8664 49.1537 45.8856 49.1959 45.8856C49.242 45.8856 49.2688 45.9124 49.2688 45.9623C49.2688 46.016 49.2957 46.0391 49.3609 46.0391C49.43 46.0391 49.4569 46.0659 49.4761 46.1542C49.4914 46.2348 49.5183 46.2693 49.5758 46.2693C49.6334 46.2693 49.6564 46.3039 49.6756 46.4228C49.6986 46.5533 49.714 46.5763 49.7907 46.5763C49.8637 46.5763 49.8828 46.5955 49.8828 46.6684C49.8828 46.7375 49.9059 46.7644 49.9711 46.7759C50.0248 46.7836 50.0594 46.8181 50.067 46.8718C50.0786 46.9371 50.1054 46.9601 50.1745 46.9601C50.2474 46.9601 50.2666 46.9793 50.2666 47.0522C50.2666 47.1213 50.2896 47.1481 50.3549 47.1596C50.4086 47.1673 50.4431 47.2019 50.4508 47.2517C50.4585 47.317 50.4969 47.34 50.6158 47.3592C50.731 47.3784 50.7655 47.4014 50.7655 47.459C50.7655 47.5204 50.7924 47.5357 50.8806 47.5357C50.9842 47.5357 50.9958 47.5472 50.9958 47.6509C50.9958 47.7391 51.0149 47.766 51.0687 47.766C51.1301 47.766 51.1493 47.8005 51.1723 47.9387C51.1915 48.0845 51.2107 48.1114 51.2836 48.1114C51.3488 48.1114 51.3795 48.1382 51.3872 48.1958C51.3949 48.2534 51.4294 48.2879 51.4831 48.2956C51.5369 48.3033 51.5714 48.3378 51.5791 48.3915C51.5867 48.4452 51.6213 48.4798 51.6788 48.4875C51.7402 48.499 51.7633 48.5258 51.7633 48.5949C51.7633 48.6678 51.7825 48.687 51.8592 48.687C51.9283 48.687 51.9552 48.7062 51.9552 48.7638C51.9552 48.8137 51.982 48.8405 52.0281 48.8405C52.0703 48.8405 52.1163 48.8559 52.1278 48.8789C52.1394 48.8981 52.1816 48.9173 52.22 48.9173C52.2583 48.9173 52.3005 48.9518 52.3121 48.994C52.3236 49.0401 52.3658 49.0708 52.4118 49.0708C52.4656 49.0708 52.4924 49.0938 52.4924 49.1475C52.4924 49.1974 52.5308 49.2396 52.5884 49.2627C52.6613 49.2895 52.6881 49.3356 52.7073 49.4545C52.7304 49.585 52.7457 49.608 52.8225 49.608C52.8954 49.608 52.9146 49.6272 52.9146 49.704C52.9146 49.7807 52.9337 49.7999 53.0105 49.7999C53.0873 49.7999 53.1064 49.8191 53.1064 49.8959C53.1064 49.9649 53.1256 49.9918 53.1832 49.9918C53.2408 49.9918 53.2599 50.0187 53.2599 50.0877C53.2599 50.1645 53.2791 50.1837 53.352 50.1837C53.4211 50.1837 53.448 50.2067 53.4595 50.2681C53.4672 50.3372 53.5056 50.3641 53.636 50.3909C53.755 50.4178 53.7972 50.4446 53.7972 50.4945C53.7972 50.5483 53.8241 50.5674 53.9123 50.5674C54.016 50.5674 54.0275 50.579 54.0275 50.6826C54.0275 50.7708 54.0467 50.7977 54.1004 50.7977C54.1503 50.7977 54.181 50.8284 54.1886 50.8821C54.1963 50.9397 54.2309 50.9742 54.2846 50.9819C54.3345 50.9896 54.3767 51.0318 54.3882 51.0894C54.4036 51.1469 54.4419 51.1815 54.488 51.1815C54.5455 51.1815 54.5647 51.2198 54.5839 51.3465C54.6223 51.5959 54.5993 51.6957 54.4995 51.7111C54.4458 51.7187 54.4112 51.7494 54.4112 51.7955C54.4112 51.8492 54.369 51.8684 54.2309 51.8914C54.1119 51.9068 54.0428 51.9029 54.0351 51.8761C54.0275 51.8531 53.9891 51.8339 53.9507 51.8339C53.9085 51.8339 53.874 51.7955 53.8586 51.7379C53.8433 51.6804 53.8087 51.642 53.7627 51.642C53.7243 51.642 53.6821 51.6074 53.6706 51.5652C53.6591 51.5192 53.6168 51.4885 53.5746 51.4885C53.5209 51.4885 53.4902 51.4578 53.4825 51.4002C53.4749 51.3465 53.4403 51.3119 53.3866 51.3043C53.3329 51.2966 53.2983 51.2621 53.2906 51.2083C53.283 51.1546 53.2484 51.1201 53.1947 51.1124C53.1256 51.1009 53.1064 51.0663 53.0834 50.9282C53.0642 50.7824 53.045 50.7593 52.9683 50.7593C52.8954 50.7593 52.8762 50.7401 52.8762 50.6634C52.8762 50.5866 52.857 50.5674 52.7802 50.5674C52.7035 50.5674 52.6843 50.5483 52.6843 50.4715C52.6843 50.3948 52.6651 50.3756 52.5884 50.3756C52.5116 50.3756 52.4924 50.3564 52.4924 50.2796C52.4924 50.2029 52.4732 50.1837 52.3965 50.1837C52.3197 50.1837 52.3005 50.1645 52.3005 50.0916C52.3005 50.0148 52.2775 49.9995 52.1509 49.9765C52.0473 49.9611 51.9974 49.9304 51.982 49.8767C51.9705 49.823 51.9283 49.7999 51.8631 49.7999C51.7825 49.7999 51.7633 49.7807 51.7633 49.7001C51.7633 49.6349 51.7402 49.5927 51.6865 49.5812C51.6328 49.5658 51.6021 49.5159 51.5867 49.4123C51.5637 49.2857 51.5484 49.2627 51.4716 49.2627C51.3987 49.2627 51.3795 49.2435 51.3795 49.1667C51.3795 49.09 51.3603 49.0708 51.2836 49.0708C51.2068 49.0708 51.1876 49.0516 51.1876 48.9748C51.1876 48.8981 51.1684 48.8789 51.0917 48.8789C51.0149 48.8789 50.9958 48.8597 50.9958 48.783C50.9958 48.7062 50.9766 48.687 50.8998 48.687C50.8231 48.687 50.8039 48.6678 50.8039 48.5949C50.8039 48.5182 50.7808 48.499 50.6312 48.4798C50.493 48.4568 50.4585 48.4376 50.4585 48.3762C50.4585 48.3263 50.4316 48.3033 50.3664 48.3033C50.2935 48.3033 50.2704 48.2802 50.2589 48.1958C50.2513 48.1229 50.2244 48.0883 50.163 48.0807C50.0939 48.0692 50.0747 48.0346 50.0517 47.8965C50.0325 47.7506 50.0133 47.7276 49.9366 47.7276C49.8637 47.7276 49.8445 47.7084 49.8445 47.6317C49.8445 47.5549 49.8253 47.5357 49.7485 47.5357C49.6718 47.5357 49.6526 47.5165 49.6526 47.4398C49.6526 47.363 49.6334 47.3439 49.5566 47.3439C49.4876 47.3439 49.4607 47.3247 49.4607 47.2671C49.4607 47.2172 49.4338 47.1903 49.384 47.1903C49.3264 47.1903 49.3072 47.1635 49.3072 47.0944C49.3072 47.0292 49.288 46.9985 49.2381 46.9985C49.1268 46.9985 48.9657 46.9102 48.9465 46.8373C48.9388 46.7951 48.8927 46.7682 48.8313 46.7682C48.7507 46.7682 48.7316 46.749 48.7316 46.6761C48.7316 46.6185 48.7047 46.5763 48.6548 46.5648C48.6011 46.5533 48.5742 46.4996 48.555 46.3883C48.532 46.254 48.5167 46.2309 48.4399 46.2309C48.367 46.2309 48.3478 46.2118 48.3478 46.135C48.3478 46.0582 48.3286 46.0391 48.2519 46.0391C48.1751 46.0391 48.1559 46.0199 48.1559 45.9431C48.1559 45.8664 48.1367 45.8472 48.06 45.8472C47.9832 45.8472 47.964 45.828 47.964 45.7512C47.964 45.6745 47.9448 45.6553 47.8681 45.6553C47.7913 45.6553 47.7722 45.6361 47.7722 45.5594C47.7722 45.4826 47.753 45.4634 47.6762 45.4634C47.5995 45.4634 47.5803 45.4442 47.5803 45.3713C47.5803 45.2946 47.5572 45.2792 47.4268 45.2562C47.2617 45.2293 47.2157 45.1411 47.35 45.1065C47.4037 45.095 47.4268 45.0528 47.4268 44.9876C47.4268 44.907 47.446 44.8878 47.5227 44.8878C47.5995 44.8878 47.6186 44.8686 47.6186 44.7918C47.6186 44.7151 47.6378 44.6959 47.7108 44.6959C47.7683 44.6959 47.8105 44.669 47.822 44.6191C47.8566 44.4925 47.9141 44.5309 47.9487 44.7036ZM14.6842 44.7995C14.6957 44.8647 14.7226 44.8878 14.7917 44.8878C14.8646 44.8878 14.8838 44.907 14.8838 44.9799C14.8838 45.0681 14.903 45.0758 15.068 45.0873C15.2215 45.0988 15.2483 45.1104 15.2599 45.1833C15.2675 45.2408 15.2982 45.2715 15.3443 45.2715C15.398 45.2715 15.421 45.3138 15.4402 45.4634C15.4633 45.6323 15.4786 45.6553 15.5592 45.6553C15.6436 45.6553 15.6513 45.6706 15.6513 45.8472C15.6513 46.0084 15.6628 46.0391 15.7242 46.0391C15.8125 46.0391 15.8432 46.1964 15.8432 46.6915C15.8432 47.1865 15.8125 47.3439 15.7242 47.3439C15.6628 47.3439 15.6513 47.3746 15.6513 47.5357C15.6513 47.7123 15.6436 47.7276 15.5592 47.7276C15.4824 47.7276 15.4633 47.7506 15.4441 47.8965C15.421 48.0461 15.4057 48.0653 15.2982 48.0883C15.1831 48.1114 15.1831 48.1152 15.2061 48.2726C15.2368 48.4683 15.2522 48.4951 15.3443 48.4951C15.4019 48.4951 15.421 48.5335 15.4402 48.664C15.4633 48.8021 15.4863 48.8405 15.5515 48.8482C15.6206 48.8597 15.6321 48.8904 15.6436 49.0401C15.6513 49.1897 15.6705 49.2243 15.7242 49.2243C15.8125 49.2243 15.8432 49.3855 15.8432 49.8959C15.8432 50.4101 15.8163 50.5674 15.7242 50.5674C15.6628 50.5674 15.6513 50.5981 15.6513 50.7593C15.6513 50.9359 15.6436 50.9512 15.5592 50.9512C15.4786 50.9512 15.4633 50.9742 15.4402 51.1431C15.421 51.2928 15.398 51.335 15.3443 51.335C15.2982 51.335 15.2675 51.3657 15.2599 51.4194C15.2483 51.4962 15.2215 51.5077 15.068 51.5192C14.903 51.5307 14.8838 51.5384 14.8838 51.6266C14.8838 51.7111 14.8684 51.7187 14.6919 51.7187C14.5115 51.7187 14.5 51.7264 14.5 51.8147V51.9106H12.5045H10.5089V48.3033V44.6959L12.5927 44.7036L14.6727 44.7151L14.6842 44.7995ZM32.8438 44.8878C32.8438 45.0681 32.8515 45.0797 32.9398 45.0797C33.028 45.0797 33.0357 45.0912 33.0357 45.2715C33.0357 45.4519 33.0434 45.4634 33.1316 45.4634C33.2199 45.4634 33.2276 45.4749 33.2276 45.6553C33.2276 45.8357 33.2353 45.8472 33.3235 45.8472C33.4118 45.8472 33.4195 45.8587 33.4195 46.0391C33.4195 46.1849 33.4348 46.2309 33.477 46.2309C33.5423 46.2309 33.6113 46.3806 33.6113 46.5226C33.6113 46.5878 33.6344 46.6147 33.6843 46.6147C33.761 46.6147 33.8032 46.7452 33.8032 47.0023C33.8032 47.1366 33.8147 47.152 33.8992 47.152C33.9874 47.152 33.9951 47.1635 33.9951 47.3439C33.9951 47.5242 34.0028 47.5357 34.091 47.5357C34.1793 47.5357 34.187 47.5472 34.187 47.7238C34.187 47.8926 34.1985 47.9157 34.2753 47.9272C34.3482 47.9387 34.3597 47.9655 34.3712 48.119C34.3827 48.2687 34.3981 48.3033 34.4556 48.3033C34.5132 48.3033 34.5324 48.3416 34.5516 48.5143C34.5746 48.6832 34.5938 48.7254 34.6513 48.7254C34.7051 48.7254 34.7243 48.7599 34.7319 48.8866C34.7396 49.0247 34.7588 49.0554 34.8317 49.0631C34.9085 49.0746 34.9161 49.0938 34.9161 49.3432C34.9161 49.6004 34.92 49.608 35.0121 49.608C35.1003 49.608 35.108 49.6196 35.108 49.7999C35.108 49.9803 35.1157 49.9918 35.204 49.9918C35.2922 49.9918 35.2999 50.0033 35.2999 50.1837C35.2999 50.3641 35.3076 50.3756 35.3958 50.3756C35.4841 50.3756 35.4918 50.3871 35.4918 50.5674C35.4918 50.7478 35.4995 50.7593 35.5877 50.7593C35.676 50.7593 35.6837 50.7708 35.6837 50.9512C35.6837 51.1316 35.6913 51.1431 35.7796 51.1431C35.8679 51.1431 35.8755 51.1546 35.8755 51.335C35.8755 51.5153 35.8832 51.5269 35.9715 51.5269C36.0597 51.5269 36.0674 51.5384 36.0674 51.7187V51.9106L35.3114 51.9029L34.5516 51.8914L34.54 51.7072C34.5285 51.546 34.5209 51.5269 34.4326 51.5269C34.3482 51.5269 34.3405 51.5115 34.3405 51.335C34.3405 51.1546 34.3328 51.1431 34.2446 51.1431C34.1563 51.1431 34.1486 51.1316 34.1486 50.9512V50.7593H32.0763H30.004V50.9512C30.004 51.1316 29.9963 51.1431 29.908 51.1431C29.8198 51.1431 29.8121 51.1584 29.8121 51.3043C29.8121 51.5422 29.7776 51.642 29.6931 51.642C29.6356 51.642 29.6202 51.6688 29.6202 51.7763V51.9106H28.8757C28.4498 51.9106 28.1197 51.8953 28.1044 51.8761C28.0929 51.8531 28.0929 51.7686 28.1082 51.6842C28.1274 51.5691 28.1504 51.5269 28.2003 51.5269C28.254 51.5269 28.2771 51.4846 28.2962 51.335C28.3154 51.1853 28.3385 51.1431 28.3922 51.1431C28.4459 51.1431 28.4689 51.1009 28.4881 50.9512C28.5073 50.7977 28.5303 50.7593 28.5841 50.7593C28.6416 50.7593 28.657 50.7248 28.6685 50.5751C28.68 50.4216 28.6915 50.3948 28.7683 50.3832C28.8412 50.3717 28.8527 50.3487 28.8527 50.1798C28.8527 50.0033 28.8604 49.9918 28.9486 49.9918C29.0369 49.9918 29.0446 49.9803 29.0446 49.7999C29.0446 49.6196 29.0523 49.608 29.1405 49.608C29.2249 49.608 29.2365 49.5927 29.2365 49.4584C29.2365 49.2013 29.2787 49.0708 29.3554 49.0708C29.4053 49.0708 29.4283 49.0439 29.4283 48.9825C29.4283 48.829 29.4706 48.7331 29.5473 48.7139C29.6087 48.6985 29.6202 48.6602 29.6202 48.499C29.6202 48.3148 29.6279 48.3033 29.7162 48.3033C29.8044 48.3033 29.8121 48.2917 29.8121 48.1114C29.8121 47.931 29.8198 47.9195 29.908 47.9195C29.9963 47.9195 30.004 47.908 30.004 47.7276C30.004 47.5472 30.0117 47.5357 30.0999 47.5357C30.1882 47.5357 30.1959 47.5242 30.1959 47.3439C30.1959 47.1635 30.2035 47.152 30.2918 47.152C30.3839 47.152 30.3877 47.1443 30.3877 46.8872C30.3877 46.6377 30.3954 46.6185 30.476 46.607C30.5374 46.5994 30.5643 46.5648 30.572 46.4881C30.5835 46.4075 30.6065 46.3844 30.6794 46.3844C30.7677 46.3844 30.7715 46.3729 30.7715 46.1196C30.7715 45.8702 30.7792 45.851 30.8598 45.8395C30.9327 45.828 30.9442 45.8011 30.9557 45.6438C30.9672 45.4941 30.9787 45.4634 31.044 45.4634C31.1054 45.4634 31.1169 45.4366 31.1169 45.2715C31.1169 45.0912 31.1246 45.0797 31.2128 45.0797C31.3011 45.0797 31.3088 45.0681 31.3088 44.8878V44.6959H32.0763H32.8438V44.8878Z" fill="black"/>
<path id="Vector_2" d="M31.9233 27.8184C31.9233 28.0756 31.8772 28.2329 31.8081 28.2329C31.7582 28.2329 31.7352 28.279 31.716 28.4248C31.6968 28.5821 31.6777 28.6167 31.6162 28.6167C31.551 28.6167 31.5395 28.6435 31.5395 28.8085C31.5395 28.9889 31.5318 29.0004 31.4436 29.0004C31.3553 29.0004 31.3476 29.0119 31.3476 29.1923C31.3476 29.3727 31.3399 29.3842 31.2517 29.3842C31.1634 29.3842 31.1557 29.3957 31.1557 29.5761C31.1557 29.7564 31.1481 29.768 31.0598 29.768C30.9715 29.768 30.9639 29.7795 30.9639 29.9598C30.9639 30.1402 30.9562 30.1517 30.8679 30.1517C30.7796 30.1517 30.772 30.1671 30.772 30.3244V30.4971H32.0768H33.3816V30.3244C33.3816 30.1786 33.37 30.1517 33.3048 30.1517C33.2396 30.1517 33.228 30.1249 33.228 29.9598C33.228 29.7795 33.2204 29.768 33.1321 29.768C33.0438 29.768 33.0362 29.7564 33.0362 29.5761C33.0362 29.3957 33.0285 29.3842 32.9402 29.3842C32.852 29.3842 32.8443 29.3727 32.8443 29.1923C32.8443 29.0158 32.8366 29.0004 32.7522 29.0004C32.6639 29.0004 32.6562 28.9812 32.6447 28.8162C32.6332 28.6627 32.6217 28.6359 32.5488 28.6243C32.4682 28.6128 32.4605 28.5898 32.4605 28.4018C32.4605 28.2252 32.449 28.1945 32.3876 28.1945C32.3109 28.1945 32.2686 28.0986 32.2686 27.9144C32.2686 27.8491 32.2495 27.8108 32.2111 27.8108C32.1804 27.8108 32.1535 27.7839 32.1535 27.7532C32.1535 27.7148 32.1151 27.6956 32.0384 27.6956C31.9348 27.6956 31.9233 27.7072 31.9233 27.8184Z" fill="black"/>
<path id="Vector_3" d="M11.8525 46.787V47.5354H12.9846H14.1167V47.4394C14.1167 47.3627 14.1359 47.3435 14.2127 47.3435C14.2894 47.3435 14.3086 47.3243 14.3086 47.2475C14.3086 47.1708 14.3278 47.1516 14.4046 47.1516C14.5005 47.1516 14.5005 47.1516 14.5005 46.787C14.5005 46.4225 14.5005 46.4225 14.4046 46.4225C14.3278 46.4225 14.3086 46.4033 14.3086 46.3265C14.3086 46.2498 14.2894 46.2306 14.2127 46.2306C14.1589 46.2306 14.1167 46.2114 14.1167 46.1922C14.1167 46.1692 14.0822 46.1538 14.04 46.1538C13.9978 46.1538 13.9632 46.127 13.9632 46.0963C13.9632 46.0464 13.8212 46.0387 12.9079 46.0387H11.8525V46.787Z" fill="black"/>
<path id="Vector_4" d="M11.8525 49.8193V50.5676H12.9846H14.1167V50.4717C14.1167 50.3949 14.1359 50.3757 14.2127 50.3757C14.2894 50.3757 14.3086 50.3565 14.3086 50.2798C14.3086 50.203 14.3278 50.1838 14.4046 50.1838C14.5005 50.1838 14.5005 50.1838 14.5005 49.8193C14.5005 49.4547 14.5005 49.4547 14.4046 49.4547C14.3278 49.4547 14.3086 49.4355 14.3086 49.3626C14.3086 49.2935 14.2856 49.2666 14.2242 49.2551C14.1666 49.2475 14.1321 49.2129 14.1244 49.1554L14.1129 49.0709H12.9808H11.8525V49.8193Z" fill="black"/>
<path id="Vector_5" d="M31.9233 46.7455C31.9233 46.9681 31.8772 47.1216 31.8043 47.1408C31.7582 47.1561 31.7314 47.2137 31.7122 47.348C31.6892 47.4977 31.67 47.5361 31.6124 47.5361C31.551 47.5361 31.5395 47.5629 31.5395 47.7279C31.5395 47.9083 31.5318 47.9198 31.4436 47.9198C31.3553 47.9198 31.3476 47.9313 31.3476 48.1117C31.3476 48.2921 31.3399 48.3036 31.2517 48.3036C31.1634 48.3036 31.1557 48.3151 31.1557 48.4955C31.1557 48.6758 31.1481 48.6873 31.0598 48.6873C30.9715 48.6873 30.9639 48.6989 30.9639 48.8792C30.9639 49.0596 30.9562 49.0711 30.8679 49.0711C30.7796 49.0711 30.772 49.0865 30.772 49.2438V49.4165H32.0768H33.3816V49.3205C33.3816 49.263 33.3585 49.2246 33.3278 49.2246C33.2703 49.2246 33.228 49.0634 33.228 48.837C33.228 48.7027 33.2165 48.6873 33.1321 48.6873C33.0438 48.6873 33.0362 48.6758 33.0362 48.4955C33.0362 48.3151 33.0285 48.3036 32.9402 48.3036C32.852 48.3036 32.8443 48.2921 32.8443 48.1117C32.8443 47.9313 32.8366 47.9198 32.7483 47.9198C32.6601 47.9198 32.6524 47.9083 32.6524 47.7279C32.6524 47.5476 32.6447 47.5361 32.5565 47.5361C32.4682 47.5361 32.4605 47.5245 32.4605 47.3442C32.4605 47.1638 32.4528 47.1523 32.3646 47.1523C32.2763 47.1523 32.2686 47.1408 32.2686 46.9604C32.2686 46.7954 32.2571 46.7685 32.1919 46.7685C32.142 46.7685 32.1151 46.7417 32.1151 46.6918C32.1151 46.6342 32.0883 46.615 32.0192 46.615C31.9348 46.615 31.9233 46.6304 31.9233 46.7455Z" fill="black"/>
</g>
</g>
<defs>
<clipPath id="clip0_4569_39625">
<rect width="62.8602" height="56.7967" fill="white" transform="translate(0.569824 0.601562)"/>
</clipPath>
</defs>
</svg>
